<?xml version="1.0" encoding="utf-8"?>
<!-- Generator: Adobe Illustrator 16.0.0, SVG Export Plug-In . SVG Version: 6.00 Build 0)  -->
<!DOCTYPE svg PUBLIC "-//W3C//DTD SVG 1.1//EN" "http://www.w3.org/Graphics/SVG/1.1/DTD/svg11.dtd">
<svg version="1.1" id="Layer_1" xmlns="http://www.w3.org/2000/svg" xmlns:xlink="http://www.w3.org/1999/xlink" x="0px" y="0px"
	 width="400px" height="400px" viewBox="0 0 400 400" enable-background="new 0 0 400 400" xml:space="preserve">
<path fill="#85ffc7" d="M200.568,0.152c-110.457,0-200,89.543-200,200s89.543,200,200,200s199.998-89.543,199.998-200
	S311.025,0.152,200.568,0.152z M200.568,380.152c-99.412,0-180.001-80.588-180.001-180c0-99.41,80.589-179.999,180.001-179.999
	c99.41,0,179.998,80.589,179.998,179.999C380.566,299.564,299.979,380.152,200.568,380.152z"/>
<path fill="#85ffc7" d="M291.421,105.878c0-14.132-0.733-27.9-2.111-41.159c-24.674-15.557-53.889-24.566-85.212-24.566
	c-34.581,0-66.598,10.973-92.764,29.623c-1.06,11.693-1.62,23.759-1.62,36.103c0,83.73,25.507,154.896,61.038,180.901
	c-12.249,14.582-20.185,37.917-20.185,64.221c0,0.396,0.016,0.785,0.019,1.179c15.728,5.168,32.525,7.974,49.981,7.974
	s34.255-2.806,49.981-7.974c0.004-0.394,0.019-0.783,0.019-1.179c0-26.304-7.936-49.639-20.185-64.221
	C265.914,260.774,291.421,189.608,291.421,105.878z"/>
<ellipse transform="matrix(0.8459 -0.5333 0.5333 0.8459 -65.7477 94.4474)" fill="none" stroke="#85ffc7" stroke-width="12" stroke-miterlimit="10" cx="130.567" cy="161" rx="35.5" ry="82"/>
<ellipse transform="matrix(-0.8459 -0.5333 0.5333 -0.8459 413.5719 441.495)" fill="none" stroke="#85ffc7" stroke-width="12" stroke-miterlimit="10" cx="270.567" cy="161" rx="35.5" ry="82"/>
</svg>
