<?xml version="1.0" standalone="no"?>
<!DOCTYPE svg PUBLIC "-//W3C//DTD SVG 20010904//EN"
 "http://www.w3.org/TR/2001/REC-SVG-20010904/DTD/svg10.dtd">
<svg version="1.0" xmlns="http://www.w3.org/2000/svg"
 width="700.000000pt" height="700.000000pt" viewBox="0 0 700.000000 700.000000"
 preserveAspectRatio="xMidYMid meet">
<metadata>
Created by potrace 1.11, written by Peter Selinger 2001-2013
</metadata>
<g transform="translate(0.000000,700.000000) scale(0.100000,-0.100000)"
fill="#000000" stroke="none">
<path d="M3275 6989 c-833 -57 -1602 -400 -2204 -984 -680 -660 -1062 -1564
-1061 -2514 1 -814 294 -1616 820 -2243 785 -938 2011 -1397 3225 -1207 957
150 1807 691 2354 1499 293 432 472 890 562 1436 18 108 22 185 26 464 4 299
3 352 -16 500 -39 302 -129 643 -241 905 -120 285 -315 612 -506 850 -114 142
-388 417 -529 529 -695 554 -1555 824 -2430 765z m445 -349 c773 -55 1473
-373 2015 -915 381 -381 669 -873 809 -1382 85 -309 110 -501 110 -843 0 -350
-30 -570 -119 -881 -315 -1093 -1220 -1945 -2331 -2194 -264 -59 -364 -69
-694 -69 -262 0 -324 3 -440 21 -582 92 -1050 292 -1510 647 -133 103 -402
369 -510 506 -365 460 -588 987 -667 1577 -24 179 -24 608 0 783 39 281 100
516 194 755 344 873 1053 1547 1938 1840 397 132 798 183 1205 155z"/>
<path d="M3355 6289 c-454 -39 -865 -173 -1245 -405 -172 -105 -159 -87 -172
-244 -6 -74 -12 -136 -13 -138 -2 -2 -27 4 -57 13 -241 72 -443 4 -541 -182
-19 -37 -42 -95 -51 -129 -91 -352 84 -940 440 -1477 124 -186 229 -314 388
-474 l142 -141 49 -124 c60 -153 192 -414 269 -533 108 -167 244 -328 351
-415 36 -28 65 -56 65 -61 0 -5 -18 -32 -39 -60 -176 -233 -301 -643 -301
-988 0 -94 1 -99 23 -104 12 -3 74 -19 137 -36 450 -122 970 -122 1420 0 63
17 126 34 139 37 l24 5 -6 146 c-15 380 -125 707 -332 988 -8 10 5 26 50 65
248 213 470 552 635 970 l42 106 152 154 c426 432 737 1006 827 1528 19 107
16 319 -4 403 -71 287 -298 410 -595 322 -30 -9 -55 -15 -57 -13 -2 2 -8 73
-14 158 -17 222 -8 201 -117 266 -305 179 -666 300 -1046 349 -152 19 -424 26
-563 14z m-1595 -963 c36 -8 86 -23 111 -34 l46 -20 6 -268 c9 -382 35 -657
93 -999 22 -127 69 -353 89 -429 8 -30 -51 37 -140 159 -207 283 -382 642
-455 930 -94 370 -47 625 123 665 47 11 55 11 127 -4z m3671 -12 c162 -83 167
-443 14 -861 -58 -158 -198 -429 -304 -589 -92 -140 -219 -310 -226 -302 -1 2
12 70 30 151 94 417 140 811 152 1301 l6 258 46 20 c106 46 219 55 282 22z"/>
</g>
</svg>
